<?xml version="1.0" standalone="no"?><!DOCTYPE svg PUBLIC "-//W3C//DTD SVG 1.1//EN" "http://www.w3.org/Graphics/SVG/1.1/DTD/svg11.dtd"><svg height="2903" legacy-metrics="false" node-id="1" sillyvg="true" template-height="2903" template-width="2903" version="1.1" viewBox="0 0 2903 2903" width="2903" xmlns="http://www.w3.org/2000/svg" xmlns:xlink="http://www.w3.org/1999/xlink"><defs node-id="24"></defs><g node-id="71"><path d="M 1451.34 2807.30 C 1268.29 2807.30 1090.71 2771.44 923.54 2700.73 C 843.19 2666.75 765.69 2624.69 693.20 2575.71 C 621.41 2527.21 553.89 2471.50 492.53 2410.14 C 431.18 2348.79 375.47 2281.27 326.96 2209.47 C 277.99 2136.98 235.93 2059.49 201.94 1979.14 C 131.23 1811.96 95.38 1634.39 95.38 1451.34 C 95.38 1268.29 131.23 1090.71 201.94 923.53 C 235.93 843.19 277.99 765.69 326.96 693.20 C 375.47 621.40 431.18 553.89 492.53 492.53 C 553.89 431.17 621.41 375.47 693.20 326.96 C 765.69 277.99 843.19 235.93 923.54 201.94 C 1090.71 131.23 1268.29 95.38 1451.34 95.38 C 1634.39 95.38 1811.97 131.23 1979.14 201.94 C 2059.49 235.93 2136.99 277.99 2209.48 326.96 C 2281.27 375.47 2348.79 431.17 2410.15 492.53 C 2471.50 553.89 2527.21 621.40 2575.72 693.20 C 2624.69 765.69 2666.75 843.19 2700.74 923.53 C 2771.45 1090.71 2807.30 1268.29 2807.30 1451.34 C 2807.30 1634.39 2771.45 1811.96 2700.74 1979.14 C 2666.75 2059.49 2624.69 2136.98 2575.72 2209.47 C 2527.21 2281.27 2471.50 2348.79 2410.15 2410.14 C 2348.79 2471.50 2281.27 2527.21 2209.48 2575.71 C 2136.99 2624.69 2059.49 2666.75 1979.14 2700.73 C 1811.97 2771.44 1634.39 2807.30 1451.34 2807.30 Z" fill="#574c49" fill-rule="nonzero" group-id="1" node-id="28" stroke="none" target-height="2711.915" target-width="2711.916" target-x="95.382" target-y="95.38"></path><path d="M 1451.34 105.38 C 2194.69 105.38 2797.30 707.99 2797.30 1451.34 C 2797.30 2194.69 2194.69 2797.30 1451.34 2797.30 C 707.99 2797.30 105.38 2194.69 105.38 1451.34 C 105.38 707.99 707.99 105.38 1451.34 105.38 M 1451.34 85.38 C 1358.67 85.38 1266.06 94.72 1176.07 113.13 C 1088.36 131.08 1002.09 157.86 919.64 192.73 C 838.70 226.97 760.63 269.34 687.61 318.68 C 615.28 367.54 547.27 423.65 485.46 485.46 C 423.65 547.27 367.54 615.28 318.68 687.61 C 269.34 760.63 226.97 838.70 192.74 919.64 C 157.86 1002.09 131.08 1088.36 113.13 1176.07 C 94.72 1266.06 85.38 1358.67 85.38 1451.34 C 85.38 1544.00 94.72 1636.62 113.13 1726.61 C 131.08 1814.32 157.86 1900.59 192.74 1983.04 C 226.97 2063.98 269.34 2142.05 318.68 2215.07 C 367.54 2287.40 423.65 2355.41 485.46 2417.22 C 547.27 2479.02 615.28 2535.14 687.61 2584.00 C 760.63 2633.33 838.70 2675.71 919.64 2709.94 C 1002.08 2744.82 1088.36 2771.60 1176.07 2789.55 C 1266.06 2807.96 1358.67 2817.30 1451.34 2817.30 C 1544.00 2817.30 1636.62 2807.96 1726.61 2789.55 C 1814.32 2771.60 1900.60 2744.82 1983.04 2709.94 C 2063.98 2675.71 2142.05 2633.34 2215.07 2584.00 C 2287.40 2535.14 2355.41 2479.02 2417.22 2417.22 C 2479.03 2355.41 2535.14 2287.40 2584.00 2215.07 C 2633.34 2142.05 2675.71 2063.98 2709.95 1983.04 C 2744.82 1900.59 2771.60 1814.32 2789.55 1726.61 C 2807.96 1636.62 2817.30 1544.01 2817.30 1451.34 C 2817.30 1358.67 2807.96 1266.06 2789.55 1176.07 C 2771.60 1088.36 2744.82 1002.09 2709.95 919.64 C 2675.71 838.70 2633.34 760.63 2584.00 687.61 C 2535.14 615.28 2479.03 547.27 2417.22 485.46 C 2355.41 423.65 2287.40 367.54 2215.07 318.68 C 2142.05 269.35 2063.98 226.97 1983.04 192.74 C 1900.60 157.86 1814.32 131.08 1726.61 113.13 C 1636.62 94.72 1544.00 85.38 1451.34 85.38 L 1451.34 85.38 Z" fill="#302726" fill-rule="nonzero" group-id="1" node-id="30" stroke="none" target-height="2731.9138" target-width="2731.915" target-x="85.383" target-y="85.382"></path></g><g node-id="72"><path d="M 1451.34 2655.67 C 1288.78 2655.67 1131.05 2623.82 982.54 2561.01 C 911.17 2530.82 842.34 2493.46 777.95 2449.96 C 714.19 2406.88 654.24 2357.42 599.75 2302.93 C 545.26 2248.45 495.80 2188.49 452.72 2124.73 C 409.22 2060.34 371.86 1991.51 341.67 1920.14 C 278.86 1771.63 247.01 1613.90 247.01 1451.34 C 247.01 1288.78 278.86 1131.05 341.67 982.55 C 371.86 911.17 409.22 842.34 452.72 777.95 C 495.80 714.19 545.26 654.24 599.75 599.75 C 654.24 545.26 714.19 495.80 777.95 452.72 C 842.34 409.22 911.17 371.86 982.54 341.67 C 1131.05 278.86 1288.78 247.01 1451.34 247.01 C 1613.90 247.01 1771.63 278.86 1920.14 341.67 C 1991.51 371.86 2060.34 409.22 2124.73 452.72 C 2188.49 495.80 2248.45 545.26 2302.93 599.75 C 2357.42 654.24 2406.89 714.19 2449.96 777.95 C 2493.46 842.34 2530.82 911.17 2561.01 982.55 C 2623.82 1131.06 2655.67 1288.78 2655.67 1451.34 C 2655.67 1613.90 2623.82 1771.63 2561.01 1920.14 C 2530.82 1991.51 2493.46 2060.34 2449.96 2124.73 C 2406.89 2188.49 2357.42 2248.45 2302.93 2302.93 C 2248.45 2357.42 2188.49 2406.89 2124.73 2449.96 C 2060.34 2493.46 1991.51 2530.82 1920.14 2561.01 C 1771.63 2623.82 1613.90 2655.67 1451.34 2655.67 Z" fill="#ddd5cc" fill-rule="nonzero" group-id="2" node-id="35" stroke="none" target-height="2408.659" target-width="2408.66" target-x="247.01" target-y="247.01"></path><path d="M 1451.34 297.01 C 2088.86 297.01 2605.67 813.82 2605.67 1451.34 C 2605.67 2088.86 2088.86 2605.67 1451.34 2605.67 C 813.82 2605.67 297.01 2088.86 297.01 1451.34 C 297.01 813.82 813.82 297.01 1451.34 297.01 M 1451.34 197.01 C 1366.30 197.01 1281.29 205.58 1198.65 222.49 C 1118.07 238.98 1038.81 263.58 963.07 295.62 C 888.72 327.07 817.02 365.98 749.96 411.29 C 683.57 456.14 621.13 507.66 564.39 564.39 C 507.66 621.13 456.15 683.56 411.29 749.96 C 365.98 817.02 327.07 888.72 295.62 963.07 C 263.59 1038.81 238.98 1118.07 222.49 1198.65 C 205.58 1281.29 197.01 1366.30 197.01 1451.34 C 197.01 1536.38 205.58 1621.40 222.49 1704.03 C 238.98 1784.61 263.59 1863.87 295.62 1939.61 C 327.07 2013.96 365.98 2085.66 411.29 2152.72 C 456.15 2219.12 507.66 2281.55 564.39 2338.29 C 621.13 2395.02 683.57 2446.53 749.96 2491.39 C 817.02 2536.70 888.72 2575.61 963.07 2607.06 C 1038.81 2639.09 1118.07 2663.70 1198.65 2680.19 C 1281.28 2697.10 1366.30 2705.67 1451.34 2705.67 C 1536.38 2705.67 1621.39 2697.10 1704.03 2680.19 C 1784.61 2663.70 1863.87 2639.09 1939.61 2607.06 C 2013.96 2575.61 2085.66 2536.70 2152.72 2491.39 C 2219.12 2446.53 2281.55 2395.02 2338.29 2338.29 C 2395.02 2281.55 2446.53 2219.12 2491.39 2152.72 C 2536.70 2085.66 2575.61 2013.96 2607.06 1939.61 C 2639.09 1863.87 2663.70 1784.61 2680.19 1704.03 C 2697.09 1621.40 2705.67 1536.38 2705.67 1451.34 C 2705.67 1366.30 2697.09 1281.29 2680.19 1198.65 C 2663.70 1118.07 2639.09 1038.81 2607.06 963.07 C 2575.61 888.72 2536.70 817.02 2491.39 749.96 C 2446.53 683.56 2395.02 621.13 2338.29 564.39 C 2281.55 507.66 2219.12 456.14 2152.72 411.29 C 2085.66 365.98 2013.96 327.07 1939.61 295.62 C 1863.87 263.58 1784.61 238.98 1704.03 222.49 C 1621.40 205.58 1536.38 197.01 1451.34 197.01 L 1451.34 197.01 Z" fill="#302726" fill-rule="nonzero" group-id="2" node-id="37" stroke="none" target-height="2508.661" target-width="2508.657" target-x="197.011" target-y="197.009"></path></g><path d="M 246.61 1453.51 L 1451.32 248.79 L 2656.03 1453.51 L 1451.32 2658.22 Z" fill="#508266" fill-rule="nonzero" node-id="40" stroke-linecap="butt" stroke-width="0.99999034" target-height="2409.4268" target-width="2409.427" target-x="246.60645" target-y="248.7926"></path><path d="M 2387.96 1839.30 L 2775.92 1451.34 L 2387.96 1063.38 L 2387.96 514.72 L 1839.30 514.72 L 1451.34 126.76 L 1063.38 514.72 L 514.72 514.72 L 514.72 1063.38 L 126.76 1451.34 L 514.72 1839.30 L 514.72 2387.96 L 1063.38 2387.96 L 1451.34 2775.92 L 1839.30 2387.96 L 2387.96 2387.96 Z" fill="none" node-id="42" stroke="#508266" stroke-linecap="butt" stroke-width="30" target-height="2649.1628" target-width="2649.1619" target-x="126.759" target-y="126.758"></path><path d="M 1257.32 2213.35 C 1207.73 2213.35 1162.16 2190.64 1132.30 2151.05 C 1102.43 2111.46 1093.12 2061.40 1106.74 2013.71 L 1149.86 1862.78 C 1112.84 1701.85 1062.95 1481.19 1026.51 1305.64 C 983.08 1329.19 935.29 1341.10 883.98 1341.10 C 799.04 1341.10 730.61 1308.56 697.39 1289.16 C 676.97 1277.24 610.30 1234.87 609.89 1190.26 C 609.70 1169.26 621.06 1147.69 643.65 1126.15 C 659.99 1110.58 682.92 1094.40 709.96 1079.37 C 752.36 1055.81 812.03 1031.81 844.04 1031.52 L 844.67 1031.52 C 867.82 1031.52 890.14 1042.88 913.78 1054.91 C 936.31 1066.38 959.51 1078.18 984.05 1080.90 C 980.57 1057.41 978.87 1040.70 978.87 1030.19 C 978.87 1024.98 978.88 1020.00 978.90 1015.23 C 979.07 959.29 980.98 922.78 1016.41 879.17 L 1016.68 878.85 C 1017.19 878.21 1017.67 877.63 1018.16 877.03 C 1024.03 869.97 1030.80 862.62 1038.84 854.58 C 1055.86 837.56 1085.48 820.77 1129.39 803.26 L 1129.49 803.21 L 1129.77 803.11 C 1163.75 762.95 1197.31 734.43 1229.59 718.29 C 1285.88 690.14 1434.57 689.33 1451.34 689.33 C 1468.11 689.33 1616.80 690.15 1673.09 718.29 C 1705.37 734.43 1738.93 762.95 1772.90 803.10 C 1789.14 809.57 1803.61 816.03 1815.99 822.32 L 1816.24 822.45 C 1817.25 822.96 1818.24 823.47 1819.22 823.99 L 1819.37 824.06 L 1819.36 824.05 L 1819.39 824.08 C 1820.38 824.59 1821.36 825.11 1822.32 825.62 L 1822.58 825.76 C 1823.49 826.25 1824.42 826.75 1825.34 827.26 L 1825.65 827.43 C 1826.56 827.93 1827.44 828.42 1828.31 828.91 L 1828.77 829.17 C 1829.58 829.63 1830.41 830.11 1831.22 830.58 L 1831.75 830.89 C 1832.54 831.35 1833.32 831.81 1834.09 832.27 L 1834.68 832.63 C 1835.43 833.08 1836.18 833.53 1836.92 833.99 L 1837.55 834.39 C 1838.24 834.81 1838.96 835.26 1839.66 835.71 L 1840.36 836.16 C 1841.02 836.59 1841.70 837.03 1842.36 837.47 L 1843.06 837.93 C 1843.71 838.37 1844.35 838.80 1844.98 839.23 L 1845.72 839.75 C 1846.34 840.17 1846.96 840.60 1847.57 841.03 L 1848.42 841.65 C 1848.98 842.06 1849.54 842.46 1850.09 842.87 L 1850.89 843.47 C 1851.44 843.88 1852.00 844.30 1852.54 844.72 L 1853.22 845.26 C 1853.80 845.71 1854.38 846.16 1854.94 846.62 L 1855.46 847.04 C 1856.08 847.56 1856.69 848.05 1857.27 848.55 C 1857.41 848.67 1857.54 848.78 1857.67 848.90 C 1859.89 850.79 1861.97 852.71 1863.84 854.59 C 1893.27 884.01 1908.46 907.16 1916.27 934.49 C 1923.81 960.89 1923.81 988.46 1923.81 1030.19 C 1923.81 1040.70 1922.11 1057.40 1918.63 1080.90 C 1943.17 1078.18 1966.37 1066.37 1988.90 1054.91 C 2012.54 1042.88 2034.87 1031.52 2058.01 1031.52 L 2058.64 1031.52 C 2090.65 1031.81 2150.32 1055.81 2192.72 1079.37 C 2219.76 1094.40 2242.69 1110.58 2259.03 1126.15 C 2281.62 1147.69 2292.97 1169.26 2292.79 1190.26 C 2292.38 1234.87 2225.72 1277.24 2205.30 1289.16 C 2172.07 1308.56 2103.66 1341.10 2018.71 1341.10 C 2018.70 1341.10 2018.70 1341.10 2018.69 1341.10 C 1967.39 1341.10 1919.60 1329.19 1876.17 1305.64 C 1839.74 1481.11 1789.85 1701.80 1752.82 1862.76 L 1795.95 2013.71 C 1809.57 2061.40 1800.26 2111.45 1770.40 2151.05 C 1740.53 2190.64 1694.96 2213.35 1645.37 2213.35 L 1257.32 2213.35 Z" fill="#464655" fill-rule="nonzero" group-id="3" node-id="46" stroke="none" target-height="1524.0149" target-width="1682.8928" target-x="609.893" target-y="689.333"></path><path d="M 1451.34 714.33 C 1451.34 714.33 1609.27 714.33 1661.91 740.65 C 1699.03 759.22 1733.48 794.62 1757.82 824.03 C 1775.05 830.73 1790.94 837.63 1804.76 844.65 C 1804.78 844.67 1804.80 844.68 1804.82 844.69 C 1805.78 845.17 1806.73 845.66 1807.67 846.15 C 1807.72 846.18 1807.77 846.21 1807.81 846.23 C 1808.72 846.71 1809.62 847.18 1810.51 847.66 C 1810.59 847.70 1810.67 847.74 1810.75 847.78 C 1811.61 848.24 1812.46 848.70 1813.30 849.17 C 1813.40 849.22 1813.51 849.28 1813.61 849.34 C 1814.42 849.79 1815.22 850.23 1816.01 850.68 C 1816.15 850.75 1816.28 850.83 1816.41 850.91 C 1817.17 851.34 1817.92 851.77 1818.66 852.20 C 1818.82 852.29 1818.97 852.38 1819.13 852.47 C 1819.84 852.89 1820.55 853.30 1821.25 853.72 C 1821.42 853.83 1821.59 853.93 1821.77 854.03 C 1822.44 854.44 1823.11 854.85 1823.76 855.25 C 1823.95 855.36 1824.13 855.48 1824.31 855.59 C 1824.95 855.99 1825.58 856.38 1826.20 856.78 C 1826.40 856.91 1826.60 857.04 1826.81 857.17 C 1827.40 857.55 1827.99 857.93 1828.56 858.32 C 1828.78 858.46 1828.98 858.60 1829.19 858.74 C 1829.75 859.11 1830.31 859.48 1830.85 859.86 C 1831.07 860.00 1831.28 860.15 1831.49 860.30 C 1832.02 860.67 1832.55 861.03 1833.07 861.40 C 1833.28 861.55 1833.48 861.70 1833.69 861.85 C 1834.19 862.22 1834.70 862.58 1835.20 862.95 C 1835.40 863.10 1835.59 863.25 1835.79 863.40 C 1836.28 863.76 1836.77 864.13 1837.25 864.50 C 1837.43 864.64 1837.61 864.79 1837.79 864.93 C 1838.27 865.30 1838.75 865.68 1839.21 866.05 C 1839.36 866.18 1839.50 866.30 1839.65 866.42 C 1840.14 866.82 1840.62 867.21 1841.09 867.61 C 1841.17 867.68 1841.25 867.75 1841.33 867.82 C 1843.06 869.30 1844.68 870.78 1846.16 872.27 C 1898.81 924.91 1898.81 951.23 1898.81 1030.19 C 1898.81 1030.19 1898.81 1030.19 1898.81 1030.19 C 1898.81 1030.19 1898.81 1030.20 1898.81 1030.20 C 1898.81 1043.55 1895.42 1069.60 1889.51 1104.90 C 1895.90 1105.99 1902.15 1106.48 1908.29 1106.48 C 1969.96 1106.48 2019.23 1056.52 2058.01 1056.52 C 2058.14 1056.52 2058.28 1056.52 2058.42 1056.52 C 2104.47 1056.94 2268.32 1130.82 2267.78 1190.04 C 2267.43 1228.71 2150.92 1316.11 2018.69 1316.11 C 1965.81 1316.11 1910.40 1302.12 1858.92 1265.44 C 1821.06 1450.90 1764.50 1700.57 1727.01 1863.44 L 1771.91 2020.59 C 1795.93 2104.66 1732.80 2188.35 1645.37 2188.35 L 1257.32 2188.35 C 1169.88 2188.35 1106.75 2104.66 1130.77 2020.59 L 1175.67 1863.44 C 1175.67 1863.43 1175.67 1863.43 1175.67 1863.42 C 1175.67 1863.43 1175.66 1863.44 1175.66 1863.44 C 1138.17 1700.57 1081.62 1450.90 1043.75 1265.43 C 992.26 1302.12 936.87 1316.10 883.98 1316.10 C 751.77 1316.10 635.24 1228.71 634.89 1190.04 C 634.35 1130.82 798.20 1056.93 844.26 1056.52 C 844.39 1056.52 844.53 1056.52 844.66 1056.52 C 883.44 1056.52 932.71 1106.48 994.38 1106.48 C 1000.52 1106.48 1006.78 1105.99 1013.17 1104.90 C 1007.25 1069.60 1003.87 1043.55 1003.87 1030.19 C 1003.87 1025.02 1003.87 1020.07 1003.89 1015.34 C 1004.07 958.79 1006.35 931.19 1035.81 894.93 C 1035.90 894.82 1035.99 894.71 1036.08 894.60 C 1036.51 894.08 1036.94 893.55 1037.38 893.02 C 1042.83 886.47 1049.15 879.62 1056.51 872.26 C 1072.23 856.54 1102.29 840.96 1139.06 826.32 C 1139.07 826.31 1139.08 826.31 1139.09 826.31 C 1140.30 825.82 1141.52 825.34 1142.75 824.86 C 1142.77 824.85 1142.79 824.85 1142.81 824.84 C 1143.49 824.57 1144.17 824.30 1144.85 824.04 C 1169.19 794.62 1203.63 759.22 1240.76 740.65 C 1293.41 714.33 1451.34 714.33 1451.34 714.33 M 1451.34 664.33 C 1449.65 664.33 1409.53 664.37 1362.23 667.75 C 1293.57 672.65 1246.53 681.87 1218.41 695.93 C 1184.41 712.93 1149.58 741.92 1114.75 782.21 C 1069.98 800.47 1040.15 817.92 1021.16 836.90 C 1012.57 845.49 1005.29 853.40 998.92 861.07 C 998.40 861.70 997.87 862.35 997.34 863.00 L 997.34 863.00 L 997.39 862.94 C 997.25 863.10 997.13 863.25 997.01 863.40 L 997.01 863.40 C 957.10 912.52 954.09 953.49 953.90 1015.12 L 953.90 1015.12 C 953.88 1019.93 953.87 1024.94 953.87 1030.19 C 953.87 1033.96 954.02 1039.06 954.68 1046.80 C 944.80 1042.64 934.89 1037.60 925.12 1032.63 C 899.90 1019.79 873.81 1006.52 844.67 1006.52 C 844.37 1006.52 844.07 1006.52 843.77 1006.52 C 805.74 1006.86 743.05 1032.38 697.82 1057.52 C 668.53 1073.79 644.50 1090.80 626.40 1108.06 C 598.60 1134.57 584.64 1162.30 584.89 1190.49 C 585.10 1213.42 596.66 1237.01 619.24 1260.61 C 636.07 1278.20 658.74 1295.54 684.78 1310.75 C 720.19 1331.42 793.15 1366.10 883.98 1366.10 C 916.65 1366.10 948.55 1361.50 978.78 1352.41 C 988.87 1349.38 998.79 1345.85 1008.53 1341.82 C 1043.79 1509.64 1089.34 1711.09 1124.06 1862.11 L 1082.70 2006.85 C 1074.66 2034.98 1073.44 2063.64 1079.08 2092.01 C 1084.37 2118.65 1095.87 2144.28 1112.34 2166.11 C 1128.80 2187.93 1150.28 2206.03 1174.44 2218.44 C 1200.17 2231.65 1228.06 2238.35 1257.32 2238.35 L 1645.37 2238.35 C 1674.63 2238.35 1702.52 2231.65 1728.25 2218.44 C 1752.42 2206.03 1773.89 2187.93 1790.36 2166.10 C 1806.82 2144.27 1818.32 2118.65 1823.61 2092.00 C 1829.25 2063.63 1828.03 2034.98 1819.99 2006.85 L 1778.63 1862.09 C 1813.36 1711.05 1858.90 1509.58 1894.15 1341.82 C 1903.89 1345.85 1913.82 1349.38 1923.89 1352.41 C 1954.13 1361.50 1986.03 1366.11 2018.70 1366.11 C 2109.53 1366.11 2182.50 1331.43 2217.90 1310.75 C 2243.95 1295.55 2266.61 1278.21 2283.44 1260.61 C 2306.02 1237.01 2317.58 1213.42 2317.78 1190.49 C 2318.04 1162.30 2304.07 1134.57 2276.28 1108.06 C 2258.17 1090.80 2234.14 1073.80 2204.86 1057.52 C 2159.63 1032.39 2096.94 1006.87 2058.87 1006.52 C 2058.62 1006.52 2058.31 1006.52 2058.01 1006.52 C 2028.87 1006.52 2002.79 1019.79 1977.56 1032.63 C 1967.79 1037.60 1957.89 1042.64 1948.01 1046.80 C 1948.66 1039.06 1948.81 1033.96 1948.81 1030.20 C 1948.81 987.93 1948.81 957.39 1940.31 927.62 C 1935.54 910.95 1928.31 895.48 1918.20 880.31 C 1909.03 866.56 1897.38 852.77 1881.52 836.91 C 1879.22 834.61 1876.70 832.28 1874.02 829.99 C 1873.85 829.83 1873.67 829.68 1873.49 829.52 L 1873.47 829.51 L 1873.44 829.49 C 1872.79 828.93 1872.11 828.37 1871.42 827.81 C 1871.16 827.59 1870.91 827.38 1870.66 827.18 C 1870.03 826.67 1869.37 826.15 1868.71 825.64 L 1868.69 825.62 C 1868.41 825.39 1868.12 825.17 1867.84 824.95 L 1867.84 824.95 C 1867.17 824.44 1866.50 823.92 1865.82 823.41 L 1865.80 823.40 C 1865.53 823.20 1865.26 822.99 1864.99 822.79 L 1864.99 822.79 C 1864.32 822.30 1863.64 821.81 1862.96 821.32 L 1862.93 821.29 L 1862.87 821.25 C 1862.60 821.05 1862.32 820.85 1862.04 820.65 C 1861.38 820.18 1860.67 819.68 1859.95 819.19 L 1859.91 819.16 C 1859.65 818.98 1859.39 818.80 1859.12 818.61 C 1858.41 818.13 1857.69 817.64 1856.96 817.16 L 1856.93 817.14 L 1856.92 817.13 L 1856.88 817.10 C 1856.61 816.92 1856.34 816.74 1856.06 816.55 C 1855.34 816.08 1854.61 815.61 1853.88 815.14 L 1853.79 815.08 C 1853.58 814.94 1853.37 814.80 1853.15 814.67 L 1853.13 814.65 L 1853.11 814.64 C 1852.34 814.15 1851.56 813.66 1850.77 813.17 L 1850.77 813.17 L 1850.73 813.14 C 1850.51 813.00 1850.28 812.86 1850.05 812.72 L 1850.05 812.72 C 1849.23 812.21 1848.40 811.71 1847.56 811.20 L 1847.62 811.24 L 1847.55 811.20 C 1847.35 811.07 1847.14 810.95 1846.94 810.83 C 1846.08 810.31 1845.22 809.81 1844.36 809.30 L 1844.31 809.27 L 1843.85 809.00 L 1843.81 808.98 L 1843.78 808.96 C 1842.90 808.45 1842.01 807.94 1841.11 807.43 L 1841.09 807.42 L 1840.61 807.15 C 1839.68 806.62 1838.74 806.10 1837.79 805.58 L 1837.39 805.35 L 1837.39 805.35 C 1836.42 804.82 1835.44 804.29 1834.45 803.76 L 1834.45 803.76 L 1834.13 803.59 L 1834.13 803.59 C 1834.12 803.58 1834.12 803.58 1834.11 803.58 L 1834.07 803.56 C 1833.08 803.02 1832.07 802.49 1831.05 801.96 L 1830.93 801.90 L 1830.76 801.81 C 1829.77 801.29 1828.76 800.77 1827.74 800.25 L 1827.70 800.23 L 1827.43 800.09 C 1815.85 794.20 1802.60 788.20 1787.92 782.21 C 1753.09 741.92 1718.27 712.93 1684.27 695.93 C 1656.15 681.87 1609.11 672.65 1540.45 667.75 C 1493.15 664.37 1453.02 664.33 1451.34 664.33 L 1451.34 664.33 Z" fill="#244933" fill-rule="nonzero" group-id="3" node-id="48" stroke="none" target-height="1574.0171" target-width="1732.8899" target-x="584.895" target-y="664.332"></path><path d="M 1030.20 1100.63 C 951.23 1126.95 890.32 1056.10 844.26 1056.52 C 798.20 1056.93 634.36 1130.81 634.89 1190.04 C 635.42 1248.18 898.59 1416.49 1082.84 1232.24 L 1030.20 1100.63 Z M 1872.48 1100.63 C 1951.45 1126.95 2012.36 1056.10 2058.42 1056.52 C 2104.48 1056.94 2268.32 1130.82 2267.79 1190.04 C 2267.26 1248.18 2004.09 1416.49 1819.84 1232.24 L 1872.48 1100.63 L 1872.48 1100.63 Z" fill="#464655" fill-rule="nonzero" group-id="4" node-id="53" stroke="none" target-height="259.59143" target-width="1632.896" target-x="634.892" target-y="1056.519"></path><path d="M 1727.02 1863.44 C 1787.83 1599.25 1898.81 1106.65 1898.81 1030.20 C 1898.81 951.23 1898.81 924.91 1846.17 872.27 C 1829.39 855.49 1796.33 838.88 1756.17 823.39 C 1560.55 747.97 1342.14 747.97 1146.52 823.39 C 1106.36 838.88 1073.30 855.49 1056.52 872.27 C 1003.88 924.91 1003.88 951.23 1003.88 1030.20 C 1003.88 1106.65 1114.86 1599.25 1175.67 1863.44 L 1130.78 2020.58 C 1106.76 2104.66 1169.88 2188.35 1257.32 2188.35 L 1645.37 2188.35 C 1732.81 2188.35 1795.94 2104.66 1771.91 2020.58 L 1727.02 1863.44 Z" fill="#ffebd2" fill-rule="nonzero" group-id="4" node-id="55" stroke="none" target-height="1421.5216" target-width="894.92896" target-x="1003.88" target-y="766.8275"></path><path d="M 1588.47 1931.36 L 1314.21 1931.36 C 1273.65 1931.36 1240.77 1964.25 1240.77 2004.81 C 1240.77 2038.79 1250.00 2072.12 1267.48 2101.26 L 1296.73 2150.01 C 1311.00 2173.79 1336.70 2188.34 1364.44 2188.34 L 1538.23 2188.34 C 1565.97 2188.34 1591.67 2173.79 1605.94 2150.01 L 1635.19 2101.26 C 1652.67 2072.12 1661.91 2038.79 1661.91 2004.81 C 1661.91 1964.25 1629.03 1931.36 1588.47 1931.36 Z" fill="#ebb4a0" fill-rule="nonzero" group-id="4" node-id="57" stroke="none" target-height="256.979" target-width="421.14197" target-x="1240.765" target-y="1931.364"></path><path d="M 1346.05 2083.06 C 1339.07 2083.07 1332.37 2080.29 1327.44 2075.34 L 1274.80 2022.70 C 1264.52 2012.43 1264.52 1995.77 1274.79 1985.49 C 1274.79 1985.49 1274.80 1985.49 1274.80 1985.48 C 1285.07 1975.20 1301.73 1975.20 1312.01 1985.47 C 1312.02 1985.47 1312.02 1985.48 1312.02 1985.48 L 1364.66 2038.12 C 1374.94 2048.40 1374.95 2065.06 1364.67 2075.34 C 1364.67 2075.34 1364.67 2075.34 1364.66 2075.34 C 1359.73 2080.29 1353.04 2083.07 1346.05 2083.06 Z M 1556.62 2083.06 C 1549.64 2083.07 1542.94 2080.29 1538.02 2075.34 C 1527.74 2065.07 1527.73 2048.41 1538.01 2038.14 C 1538.01 2038.13 1538.01 2038.13 1538.02 2038.13 L 1590.66 1985.48 C 1600.93 1975.21 1617.59 1975.20 1627.87 1985.47 C 1627.88 1985.48 1627.88 1985.48 1627.88 1985.48 C 1638.16 1995.76 1638.17 2012.42 1627.90 2022.69 C 1627.89 2022.70 1627.89 2022.70 1627.88 2022.71 L 1575.24 2075.35 C 1570.31 2080.29 1563.61 2083.07 1556.62 2083.06 Z" fill="#d7a091" fill-rule="nonzero" group-id="4" node-id="59" stroke="none" target-height="105.288574" target-width="368.50745" target-x="1267.089" target-y="1977.7695"></path><path d="M 1846.16 872.26 C 1829.62 855.72 1797.22 839.34 1757.82 824.04 C 1733.48 794.62 1699.04 759.22 1661.91 740.65 C 1609.27 714.33 1451.34 714.33 1451.34 714.33 C 1451.34 714.33 1293.41 714.33 1240.77 740.65 C 1203.64 759.22 1169.20 794.62 1144.86 824.03 C 1105.46 839.33 1073.06 855.72 1056.51 872.26 C 1009.59 919.18 1004.52 945.44 1003.96 1006.46 C 1040.04 1008.14 1085.06 1010.01 1106.51 1010.01 C 1267.08 1010.01 1401.95 934.94 1447.71 901.62 L 1422.35 1007.14 C 1505.70 1006.38 1654.20 932.64 1684.60 899.46 L 1711.88 1004.51 C 1793.52 951.22 1793.52 924.90 1793.52 924.90 C 1793.52 924.90 1846.72 924.96 1894.91 954.09 C 1889.66 925.27 1877.13 903.23 1846.16 872.26 Z" fill="#ffdeb7" fill-rule="nonzero" group-id="4" node-id="61" stroke="none" target-height="295.67902" target-width="890.952" target-x="1003.959" target-y="714.332"></path><path d="M 1004.87 977.82 C 1003.93 992.66 1003.87 1009.58 1003.87 1030.19 C 1003.87 1106.65 1114.85 1599.25 1175.67 1863.43 C 1175.67 1863.43 1319.73 1582.94 1319.73 1530.30 C 1319.73 1477.71 1345.97 1057.39 1004.87 977.82 Z" fill="#6b676e" fill-rule="nonzero" group-id="4" node-id="63" stroke="none" target-height="885.61694" target-width="316.29968" target-x="1003.871" target-y="977.817"></path><path d="M 1109.17 1280.26 C 1109.16 1316.61 1126.83 1346.08 1148.63 1346.10 C 1170.44 1346.12 1188.13 1316.68 1188.14 1280.34 C 1188.14 1280.31 1188.14 1280.29 1188.14 1280.26 C 1188.15 1243.92 1170.48 1214.44 1148.68 1214.42 C 1126.87 1214.40 1109.19 1243.85 1109.17 1280.19 C 1109.17 1280.21 1109.17 1280.24 1109.17 1280.26 Z" fill="#464655" fill-rule="nonzero" group-id="4" node-id="65" stroke="none" target-height="131.682" target-width="78.96509" target-x="1109.174" target-y="1214.422"></path><path d="M 1897.81 977.82 C 1898.75 992.66 1898.81 1009.58 1898.81 1030.19 C 1898.81 1106.65 1787.83 1599.25 1727.02 1863.43 C 1727.02 1863.43 1582.95 1582.94 1582.95 1530.30 C 1582.95 1477.71 1556.71 1057.39 1897.81 977.82 Z" fill="#6b676e" fill-rule="nonzero" group-id="4" node-id="67" stroke="none" target-height="885.61694" target-width="316.2992" target-x="1582.5098" target-y="977.817"></path><path d="M 1714.54 1280.26 C 1714.53 1316.61 1732.19 1346.08 1754.00 1346.10 C 1775.81 1346.12 1793.49 1316.68 1793.51 1280.34 C 1793.51 1280.31 1793.51 1280.29 1793.51 1280.26 C 1793.52 1243.92 1775.85 1214.44 1754.05 1214.42 C 1732.24 1214.40 1714.55 1243.85 1714.54 1280.19 C 1714.54 1280.21 1714.54 1280.24 1714.54 1280.26 Z" fill="#464655" fill-rule="nonzero" group-id="4" node-id="69" stroke="none" target-height="131.682" target-width="78.964966" target-x="1714.542" target-y="1214.422"></path></svg>